<svg width="62" height="15" viewBox="0 0 62 15" fill="none" xmlns="http://www.w3.org/2000/svg">
<path d="M21.18 3.6V12H19.992V4.644H18.096V3.6H21.18ZM31.3761 7.596C31.8561 7.78 32.2241 8.044 32.4801 8.388C32.7361 8.732 32.8641 9.144 32.8641 9.624C32.8641 10.128 32.7281 10.568 32.4561 10.944C32.1841 11.312 31.7961 11.596 31.2921 11.796C30.7881 11.996 30.1961 12.096 29.5161 12.096C28.8441 12.096 28.2561 11.996 27.7521 11.796C27.2561 11.596 26.8721 11.312 26.6001 10.944C26.3281 10.568 26.1921 10.128 26.1921 9.624C26.1921 9.144 26.3161 8.732 26.5641 8.388C26.8201 8.044 27.1881 7.78 27.6681 7.596C27.2841 7.412 26.9921 7.168 26.7921 6.864C26.5921 6.56 26.4921 6.2 26.4921 5.784C26.4921 5.32 26.6161 4.916 26.8641 4.572C27.1201 4.228 27.4761 3.964 27.9321 3.78C28.3881 3.596 28.9161 3.504 29.5161 3.504C30.1241 3.504 30.6561 3.596 31.1121 3.78C31.5761 3.964 31.9321 4.228 32.1801 4.572C32.4361 4.916 32.5641 5.32 32.5641 5.784C32.5641 6.192 32.4601 6.552 32.2521 6.864C32.0521 7.168 31.7601 7.412 31.3761 7.596ZM29.5161 4.476C28.9481 4.476 28.5001 4.6 28.1721 4.848C27.8441 5.088 27.6801 5.416 27.6801 5.832C27.6801 6.248 27.8401 6.576 28.1601 6.816C28.4881 7.056 28.9401 7.176 29.5161 7.176C30.1001 7.176 30.5561 7.056 30.8841 6.816C31.2201 6.576 31.3881 6.248 31.3881 5.832C31.3881 5.416 31.2161 5.088 30.8721 4.848C30.5361 4.6 30.0841 4.476 29.5161 4.476ZM29.5161 11.124C30.1801 11.124 30.7041 10.988 31.0881 10.716C31.4721 10.436 31.6641 10.06 31.6641 9.588C31.6641 9.124 31.4721 8.76 31.0881 8.496C30.7041 8.224 30.1801 8.088 29.5161 8.088C28.8521 8.088 28.3321 8.224 27.9561 8.496C27.5801 8.76 27.3921 9.124 27.3921 9.588C27.3921 10.06 27.5801 10.436 27.9561 10.716C28.3321 10.988 28.8521 11.124 29.5161 11.124ZM37.3947 12.096C36.7307 12.096 36.1387 11.928 35.6187 11.592C35.1067 11.248 34.7027 10.752 34.4067 10.104C34.1107 9.456 33.9627 8.688 33.9627 7.8C33.9627 6.912 34.1107 6.144 34.4067 5.496C34.7027 4.848 35.1067 4.356 35.6187 4.02C36.1387 3.676 36.7307 3.504 37.3947 3.504C38.0507 3.504 38.6347 3.676 39.1467 4.02C39.6667 4.356 40.0747 4.848 40.3707 5.496C40.6667 6.144 40.8147 6.912 40.8147 7.8C40.8147 8.688 40.6667 9.456 40.3707 10.104C40.0747 10.752 39.6667 11.248 39.1467 11.592C38.6347 11.928 38.0507 12.096 37.3947 12.096ZM37.3947 11.028C38.0667 11.028 38.6027 10.752 39.0027 10.2C39.4107 9.648 39.6147 8.848 39.6147 7.8C39.6147 6.752 39.4107 5.952 39.0027 5.4C38.6027 4.848 38.0667 4.572 37.3947 4.572C36.7147 4.572 36.1707 4.848 35.7627 5.4C35.3627 5.952 35.1627 6.752 35.1627 7.8C35.1627 8.848 35.3627 9.648 35.7627 10.2C36.1707 10.752 36.7147 11.028 37.3947 11.028ZM44.6906 3.504C45.8186 3.504 46.6866 3.868 47.2946 4.596C47.9106 5.324 48.2186 6.356 48.2186 7.692C48.2186 8.628 48.0506 9.428 47.7146 10.092C47.3866 10.748 46.9226 11.248 46.3226 11.592C45.7306 11.928 45.0386 12.096 44.2466 12.096C43.8386 12.096 43.4546 12.056 43.0946 11.976C42.7346 11.888 42.4226 11.764 42.1586 11.604L42.6146 10.668C43.0226 10.932 43.5626 11.064 44.2346 11.064C45.1066 11.064 45.7866 10.796 46.2746 10.26C46.7706 9.716 47.0186 8.928 47.0186 7.896V7.596C46.7786 7.956 46.4466 8.232 46.0226 8.424C45.5986 8.608 45.1226 8.7 44.5946 8.7C44.0426 8.7 43.5466 8.596 43.1066 8.388C42.6746 8.18 42.3346 7.884 42.0866 7.5C41.8466 7.108 41.7266 6.66 41.7266 6.156C41.7266 5.628 41.8546 5.164 42.1106 4.764C42.3746 4.364 42.7306 4.056 43.1786 3.84C43.6266 3.616 44.1306 3.504 44.6906 3.504ZM44.7986 7.728C45.1746 7.728 45.5106 7.656 45.8066 7.512C46.1026 7.368 46.3306 7.172 46.4906 6.924C46.6586 6.676 46.7426 6.4 46.7426 6.096C46.7426 5.8 46.6626 5.532 46.5026 5.292C46.3506 5.044 46.1226 4.848 45.8186 4.704C45.5226 4.552 45.1626 4.476 44.7386 4.476C44.1866 4.476 43.7386 4.624 43.3946 4.92C43.0586 5.216 42.8906 5.612 42.8906 6.108C42.8906 6.604 43.0626 7 43.4066 7.296C43.7506 7.584 44.2146 7.728 44.7986 7.728ZM54.8155 9.204V9.912H57.4795V10.596H54.8155V12H53.6035V10.596H52.3795V9.912H53.6035V3.6H56.9035C57.9995 3.6 58.8555 3.844 59.4715 4.332C60.0875 4.812 60.3955 5.5 60.3955 6.396C60.3955 7.3 60.0875 7.996 59.4715 8.484C58.8555 8.964 57.9995 9.204 56.9035 9.204H54.8155ZM59.1835 6.408C59.1835 5.84 58.9875 5.404 58.5955 5.1C58.2035 4.796 57.6395 4.644 56.9035 4.644H54.8155V8.208H56.9035C57.6315 8.208 58.1915 8.052 58.5835 7.74C58.9835 7.42 59.1835 6.976 59.1835 6.408Z" fill="white"/>
<path d="M9.7 4.41997C11.401 4.41997 12.78 3.92748 12.78 3.31997C12.78 2.71246 11.401 2.21997 9.7 2.21997C7.99896 2.21997 6.62 2.71246 6.62 3.31997C6.62 3.92748 7.99896 4.41997 9.7 4.41997Z" stroke="white" stroke-width="0.6" stroke-miterlimit="10" stroke-linecap="round" stroke-linejoin="round"/>
<path d="M6.62 3.54004C6.62 3.74068 6.62 4.6594 6.62 4.86004C6.62 5.46746 7.99852 5.96004 9.7 5.96004C11.4015 5.96004 12.78 5.46746 12.78 4.86004C12.78 4.6594 12.78 3.74068 12.78 3.54004" stroke="white" stroke-width="0.6" stroke-miterlimit="10" stroke-linecap="round" stroke-linejoin="round"/>
<path d="M8.28101 7.37654C8.70561 7.4553 9.18829 7.49996 9.70001 7.49996C11.4015 7.49996 12.78 7.00738 12.78 6.39996C12.78 6.19932 12.78 5.2806 12.78 5.07996" stroke="white" stroke-width="0.6" stroke-miterlimit="10" stroke-linecap="round" stroke-linejoin="round"/>
<path d="M6.62 5.07996C6.62 5.2806 6.62 6.01936 6.62 6.01936" stroke="white" stroke-width="0.6" stroke-miterlimit="10" stroke-linecap="round" stroke-linejoin="round"/>
<path d="M8.3855 8.93505C8.78414 9.00237 9.22964 9.03999 9.7 9.03999C11.4015 9.03999 12.78 8.54763 12.78 7.93999C12.78 7.73935 12.78 6.82064 12.78 6.62" stroke="white" stroke-width="0.6" stroke-miterlimit="10" stroke-linecap="round" stroke-linejoin="round"/>
<path d="M8.36853 10.4722C8.77135 10.5413 9.22301 10.58 9.69997 10.58C11.4015 10.58 12.78 10.0877 12.78 9.48003C12.78 9.27939 12.78 8.36067 12.78 8.16003" stroke="white" stroke-width="0.6" stroke-miterlimit="10" stroke-linecap="round" stroke-linejoin="round"/>
<path d="M5.29997 8.15996C7.00101 8.15996 8.37997 7.66747 8.37997 7.05996C8.37997 6.45245 7.00101 5.95996 5.29997 5.95996C3.59893 5.95996 2.21997 6.45245 2.21997 7.05996C2.21997 7.66747 3.59893 8.15996 5.29997 8.15996Z" stroke="white" stroke-width="0.6" stroke-miterlimit="10" stroke-linecap="round" stroke-linejoin="round"/>
<path d="M2.21997 7.28003C2.21997 7.48067 2.21997 8.39939 2.21997 8.60003C2.21997 9.20767 3.59849 9.70003 5.29997 9.70003C7.00145 9.70003 8.37997 9.20767 8.37997 8.60003C8.37997 8.39939 8.37997 7.48067 8.37997 7.28003" stroke="white" stroke-width="0.6" stroke-miterlimit="10" stroke-linecap="round" stroke-linejoin="round"/>
<path d="M2.21997 8.81995C2.21997 9.02059 2.21997 9.93931 2.21997 10.1399C2.21997 10.7476 3.59849 11.2399 5.29997 11.2399C7.00145 11.2399 8.37997 10.7476 8.37997 10.1399C8.37997 9.93931 8.37997 9.02059 8.37997 8.81995" stroke="white" stroke-width="0.6" stroke-miterlimit="10" stroke-linecap="round" stroke-linejoin="round"/>
<path d="M2.21997 10.36C2.21997 10.5606 2.21997 11.4793 2.21997 11.68C2.21997 12.2876 3.59849 12.78 5.29997 12.78C7.00145 12.78 8.37997 12.2876 8.37997 11.68C8.37997 11.4793 8.37997 10.5606 8.37997 10.36" stroke="white" stroke-width="0.6" stroke-miterlimit="10" stroke-linecap="round" stroke-linejoin="round"/>
</svg>
