<svg width="65" height="15" viewBox="0 0 65 15" fill="none" xmlns="http://www.w3.org/2000/svg">
<path d="M22.48 10.956V12H16.444V11.184L19.864 7.884C20.28 7.484 20.56 7.14 20.704 6.852C20.848 6.556 20.92 6.26 20.92 5.964C20.92 5.524 20.764 5.184 20.452 4.944C20.148 4.696 19.708 4.572 19.132 4.572C18.204 4.572 17.488 4.876 16.984 5.484L16.168 4.776C16.496 4.376 16.924 4.064 17.452 3.84C17.988 3.616 18.584 3.504 19.24 3.504C20.12 3.504 20.82 3.716 21.34 4.14C21.86 4.556 22.12 5.124 22.12 5.844C22.12 6.292 22.024 6.716 21.832 7.116C21.64 7.516 21.276 7.972 20.74 8.484L18.172 10.956H22.48ZM24.3878 10.428C24.6118 10.428 24.7958 10.508 24.9398 10.668C25.0918 10.82 25.1678 11.012 25.1678 11.244C25.1678 11.364 25.1518 11.48 25.1198 11.592C25.0958 11.704 25.0438 11.876 24.9638 12.108L24.3998 13.776H23.6438L24.0878 11.988C23.9358 11.932 23.8118 11.84 23.7158 11.712C23.6278 11.576 23.5838 11.42 23.5838 11.244C23.5838 11.004 23.6598 10.808 23.8118 10.656C23.9638 10.504 24.1558 10.428 24.3878 10.428ZM28.7026 6.948C29.9026 6.948 30.7826 7.176 31.3426 7.632C31.9106 8.08 32.1946 8.696 32.1946 9.48C32.1946 9.976 32.0746 10.424 31.8346 10.824C31.6026 11.216 31.2466 11.528 30.7666 11.76C30.2946 11.984 29.7106 12.096 29.0146 12.096C28.4226 12.096 27.8506 12.008 27.2986 11.832C26.7466 11.648 26.2906 11.396 25.9306 11.076L26.4826 10.128C26.7706 10.4 27.1386 10.62 27.5866 10.788C28.0346 10.948 28.5066 11.028 29.0026 11.028C29.6346 11.028 30.1226 10.896 30.4666 10.632C30.8186 10.36 30.9946 9.992 30.9946 9.528C30.9946 9.024 30.8026 8.644 30.4186 8.388C30.0346 8.124 29.3786 7.992 28.4506 7.992H26.5426L26.9866 3.6H31.7266V4.644H27.9946L27.7666 6.948H28.7026ZM42.0318 5.64V12H40.8798V9.432C40.1918 9.752 39.5078 9.912 38.8278 9.912C38.0358 9.912 37.4238 9.728 36.9918 9.36C36.5598 8.992 36.3438 8.44 36.3438 7.704V5.64H37.4958V7.632C37.4958 8.072 37.6318 8.404 37.9038 8.628C38.1838 8.852 38.5718 8.964 39.0678 8.964C39.6278 8.964 40.2318 8.824 40.8798 8.544V5.64H42.0318ZM46.5363 5.58C47.4163 5.58 48.0883 5.796 48.5523 6.228C49.0243 6.66 49.2603 7.304 49.2603 8.16V12H48.1683V11.16C47.9763 11.456 47.7003 11.684 47.3403 11.844C46.9883 11.996 46.5683 12.072 46.0803 12.072C45.3683 12.072 44.7963 11.9 44.3643 11.556C43.9403 11.212 43.7283 10.76 43.7283 10.2C43.7283 9.64 43.9323 9.192 44.3403 8.856C44.7483 8.512 45.3963 8.34 46.2843 8.34H48.1083V8.112C48.1083 7.616 47.9643 7.236 47.6763 6.972C47.3883 6.708 46.9643 6.576 46.4043 6.576C46.0283 6.576 45.6603 6.64 45.3003 6.768C44.9403 6.888 44.6363 7.052 44.3883 7.26L43.9083 6.396C44.2363 6.132 44.6283 5.932 45.0843 5.796C45.5403 5.652 46.0243 5.58 46.5363 5.58ZM46.2723 11.184C46.7123 11.184 47.0923 11.088 47.4123 10.896C47.7323 10.696 47.9643 10.416 48.1083 10.056V9.168H46.3323C45.3563 9.168 44.8683 9.496 44.8683 10.152C44.8683 10.472 44.9923 10.724 45.2403 10.908C45.4883 11.092 45.8323 11.184 46.2723 11.184ZM54.1068 12.072C53.4588 12.072 52.8788 11.932 52.3668 11.652C51.8628 11.372 51.4668 10.988 51.1788 10.5C50.8908 10.004 50.7468 9.444 50.7468 8.82C50.7468 8.196 50.8908 7.64 51.1788 7.152C51.4668 6.656 51.8628 6.272 52.3668 6C52.8788 5.72 53.4588 5.58 54.1068 5.58C54.6828 5.58 55.1948 5.696 55.6428 5.928C56.0988 6.16 56.4508 6.496 56.6988 6.936L55.8228 7.5C55.6228 7.196 55.3748 6.968 55.0788 6.816C54.7828 6.664 54.4548 6.588 54.0948 6.588C53.6788 6.588 53.3028 6.68 52.9668 6.864C52.6388 7.048 52.3788 7.312 52.1868 7.656C52.0028 7.992 51.9108 8.38 51.9108 8.82C51.9108 9.268 52.0028 9.664 52.1868 10.008C52.3788 10.344 52.6388 10.604 52.9668 10.788C53.3028 10.972 53.6788 11.064 54.0948 11.064C54.4548 11.064 54.7828 10.988 55.0788 10.836C55.3748 10.684 55.6228 10.456 55.8228 10.152L56.6988 10.704C56.4508 11.144 56.0988 11.484 55.6428 11.724C55.1948 11.956 54.6828 12.072 54.1068 12.072ZM60.4582 5.58C61.3382 5.58 62.0102 5.796 62.4742 6.228C62.9462 6.66 63.1822 7.304 63.1822 8.16V12H62.0902V11.16C61.8982 11.456 61.6222 11.684 61.2622 11.844C60.9102 11.996 60.4902 12.072 60.0022 12.072C59.2902 12.072 58.7182 11.9 58.2862 11.556C57.8622 11.212 57.6502 10.76 57.6502 10.2C57.6502 9.64 57.8542 9.192 58.2622 8.856C58.6702 8.512 59.3182 8.34 60.2062 8.34H62.0302V8.112C62.0302 7.616 61.8862 7.236 61.5982 6.972C61.3102 6.708 60.8862 6.576 60.3262 6.576C59.9502 6.576 59.5822 6.64 59.2222 6.768C58.8622 6.888 58.5582 7.052 58.3102 7.26L57.8302 6.396C58.1582 6.132 58.5502 5.932 59.0062 5.796C59.4622 5.652 59.9462 5.58 60.4582 5.58ZM60.1942 11.184C60.6342 11.184 61.0142 11.088 61.3342 10.896C61.6542 10.696 61.8862 10.416 62.0302 10.056V9.168H60.2542C59.2782 9.168 58.7902 9.496 58.7902 10.152C58.7902 10.472 58.9142 10.724 59.1622 10.908C59.4102 11.092 59.7542 11.184 60.1942 11.184Z" fill="white"/>
<g clip-path="url(#clip0_19_322)">
<path d="M6 13.625C4.88748 13.625 3.79995 13.2951 2.87492 12.677C1.94989 12.0589 1.22892 11.1804 0.80318 10.1526C0.377437 9.12476 0.266043 7.99376 0.483085 6.90262C0.700127 5.81148 1.23586 4.8092 2.02253 4.02253C2.8092 3.23586 3.81148 2.70013 4.90262 2.48309C5.99376 2.26604 7.12476 2.37744 8.1526 2.80318C9.18043 3.22892 10.0589 3.94989 10.677 4.87492C11.2951 5.79995 11.625 6.88748 11.625 8C11.625 9.49184 11.0324 10.9226 9.97748 11.9775C8.92259 13.0324 7.49184 13.625 6 13.625ZM6 3.125C5.03582 3.125 4.09329 3.41092 3.2916 3.94659C2.48991 4.48226 1.86507 5.24363 1.49609 6.13442C1.12711 7.02521 1.03057 8.00541 1.21867 8.95107C1.40678 9.89673 1.87108 10.7654 2.55286 11.4471C3.23464 12.1289 4.10328 12.5932 5.04894 12.7813C5.99459 12.9694 6.97479 12.8729 7.86558 12.5039C8.75637 12.1349 9.51775 11.5101 10.0534 10.7084C10.5891 9.90672 10.875 8.96419 10.875 8C10.875 6.70707 10.3614 5.4671 9.44715 4.55286C8.53291 3.63862 7.29293 3.125 6 3.125Z" fill="white"/>
<path d="M7.59001 10.1225L5.73376 8.26625C5.699 8.23121 5.6715 8.18965 5.65284 8.14397C5.63418 8.09828 5.62472 8.04935 5.62501 8V5H6.37501V7.84625L8.12251 9.59L7.59001 10.1225Z" fill="white"/>
</g>
<defs>
<clipPath id="clip0_19_322">
<rect width="12" height="12" fill="white" transform="translate(0 2)"/>
</clipPath>
</defs>
</svg>
