<svg width="59" height="15" viewBox="0 0 59 15" fill="none" xmlns="http://www.w3.org/2000/svg">
<path d="M21.792 7.128C22.616 7.208 23.244 7.464 23.676 7.896C24.108 8.32 24.324 8.864 24.324 9.528C24.324 10.008 24.204 10.444 23.964 10.836C23.724 11.22 23.364 11.528 22.884 11.76C22.412 11.984 21.832 12.096 21.144 12.096C20.544 12.096 19.968 12.008 19.416 11.832C18.864 11.648 18.412 11.396 18.06 11.076L18.612 10.128C18.9 10.4 19.268 10.62 19.716 10.788C20.164 10.948 20.64 11.028 21.144 11.028C21.768 11.028 22.252 10.896 22.596 10.632C22.948 10.368 23.124 10.004 23.124 9.54C23.124 9.076 22.952 8.716 22.608 8.46C22.264 8.204 21.744 8.076 21.048 8.076H20.376V7.236L22.488 4.644H18.444V3.6H23.988V4.416L21.792 7.128ZM31.0658 6.948C32.2658 6.948 33.1458 7.176 33.7058 7.632C34.2738 8.08 34.5578 8.696 34.5578 9.48C34.5578 9.976 34.4378 10.424 34.1978 10.824C33.9658 11.216 33.6098 11.528 33.1298 11.76C32.6578 11.984 32.0738 12.096 31.3778 12.096C30.7858 12.096 30.2138 12.008 29.6618 11.832C29.1098 11.648 28.6538 11.396 28.2938 11.076L28.8458 10.128C29.1338 10.4 29.5018 10.62 29.9498 10.788C30.3978 10.948 30.8698 11.028 31.3658 11.028C31.9978 11.028 32.4858 10.896 32.8298 10.632C33.1818 10.36 33.3578 9.992 33.3578 9.528C33.3578 9.024 33.1658 8.644 32.7818 8.388C32.3978 8.124 31.7418 7.992 30.8138 7.992H28.9058L29.3498 3.6H34.0898V4.644H30.3578L30.1298 6.948H31.0658ZM38.1605 3.6V12H36.9725V4.644H35.0765V3.6H38.1605ZM42.3979 6.948C43.5979 6.948 44.4779 7.176 45.0379 7.632C45.6059 8.08 45.8899 8.696 45.8899 9.48C45.8899 9.976 45.7699 10.424 45.5299 10.824C45.2979 11.216 44.9419 11.528 44.4619 11.76C43.9899 11.984 43.4059 12.096 42.7099 12.096C42.1179 12.096 41.5459 12.008 40.9939 11.832C40.4419 11.648 39.9859 11.396 39.6259 11.076L40.1779 10.128C40.4659 10.4 40.8339 10.62 41.2819 10.788C41.7299 10.948 42.2019 11.028 42.6979 11.028C43.3299 11.028 43.8179 10.896 44.1619 10.632C44.5139 10.36 44.6899 9.992 44.6899 9.528C44.6899 9.024 44.4979 8.644 44.1139 8.388C43.7299 8.124 43.0739 7.992 42.1459 7.992H40.2379L40.6819 3.6H45.4219V4.644H41.6899L41.4619 6.948H42.3979ZM52.3312 9.204V9.912H54.9952V10.596H52.3312V12H51.1192V10.596H49.8952V9.912H51.1192V3.6H54.4192C55.5152 3.6 56.3712 3.844 56.9872 4.332C57.6032 4.812 57.9112 5.5 57.9112 6.396C57.9112 7.3 57.6032 7.996 56.9872 8.484C56.3712 8.964 55.5152 9.204 54.4192 9.204H52.3312ZM56.6992 6.408C56.6992 5.84 56.5032 5.404 56.1112 5.1C55.7192 4.796 55.1552 4.644 54.4192 4.644H52.3312V8.208H54.4192C55.1472 8.208 55.7072 8.052 56.0992 7.74C56.4992 7.42 56.6992 6.976 56.6992 6.408Z" fill="white"/>
<path d="M9.70012 4.41997C11.4012 4.41997 12.7801 3.92748 12.7801 3.31997C12.7801 2.71246 11.4012 2.21997 9.70012 2.21997C7.99908 2.21997 6.62012 2.71246 6.62012 3.31997C6.62012 3.92748 7.99908 4.41997 9.70012 4.41997Z" stroke="white" stroke-width="0.6" stroke-miterlimit="10" stroke-linecap="round" stroke-linejoin="round"/>
<path d="M6.62012 3.54004C6.62012 3.74068 6.62012 4.6594 6.62012 4.86004C6.62012 5.46746 7.99864 5.96004 9.70012 5.96004C11.4016 5.96004 12.7801 5.46746 12.7801 4.86004C12.7801 4.6594 12.7801 3.74068 12.7801 3.54004" stroke="white" stroke-width="0.6" stroke-miterlimit="10" stroke-linecap="round" stroke-linejoin="round"/>
<path d="M8.28101 7.37654C8.70561 7.4553 9.18829 7.49996 9.70001 7.49996C11.4015 7.49996 12.78 7.00738 12.78 6.39996C12.78 6.19932 12.78 5.2806 12.78 5.07996" stroke="white" stroke-width="0.6" stroke-miterlimit="10" stroke-linecap="round" stroke-linejoin="round"/>
<path d="M6.62012 5.07996C6.62012 5.2806 6.62012 6.01936 6.62012 6.01936" stroke="white" stroke-width="0.6" stroke-miterlimit="10" stroke-linecap="round" stroke-linejoin="round"/>
<path d="M8.3855 8.93505C8.78414 9.00237 9.22964 9.03999 9.7 9.03999C11.4015 9.03999 12.78 8.54763 12.78 7.93999C12.78 7.73935 12.78 6.82064 12.78 6.62" stroke="white" stroke-width="0.6" stroke-miterlimit="10" stroke-linecap="round" stroke-linejoin="round"/>
<path d="M8.36865 10.4722C8.77147 10.5413 9.22313 10.58 9.70009 10.58C11.4016 10.58 12.7801 10.0877 12.7801 9.48003C12.7801 9.27939 12.7801 8.36067 12.7801 8.16003" stroke="white" stroke-width="0.6" stroke-miterlimit="10" stroke-linecap="round" stroke-linejoin="round"/>
<path d="M5.29997 8.15996C7.00101 8.15996 8.37997 7.66747 8.37997 7.05996C8.37997 6.45245 7.00101 5.95996 5.29997 5.95996C3.59893 5.95996 2.21997 6.45245 2.21997 7.05996C2.21997 7.66747 3.59893 8.15996 5.29997 8.15996Z" stroke="white" stroke-width="0.6" stroke-miterlimit="10" stroke-linecap="round" stroke-linejoin="round"/>
<path d="M2.21997 7.28003C2.21997 7.48067 2.21997 8.39939 2.21997 8.60003C2.21997 9.20767 3.59849 9.70003 5.29997 9.70003C7.00145 9.70003 8.37997 9.20767 8.37997 8.60003C8.37997 8.39939 8.37997 7.48067 8.37997 7.28003" stroke="white" stroke-width="0.6" stroke-miterlimit="10" stroke-linecap="round" stroke-linejoin="round"/>
<path d="M2.21997 8.81995C2.21997 9.02059 2.21997 9.93931 2.21997 10.1399C2.21997 10.7476 3.59849 11.2399 5.29997 11.2399C7.00145 11.2399 8.37997 10.7476 8.37997 10.1399C8.37997 9.93931 8.37997 9.02059 8.37997 8.81995" stroke="white" stroke-width="0.6" stroke-miterlimit="10" stroke-linecap="round" stroke-linejoin="round"/>
<path d="M2.21997 10.36C2.21997 10.5606 2.21997 11.4793 2.21997 11.68C2.21997 12.2876 3.59849 12.78 5.29997 12.78C7.00145 12.78 8.37997 12.2876 8.37997 11.68C8.37997 11.4793 8.37997 10.5606 8.37997 10.36" stroke="white" stroke-width="0.6" stroke-miterlimit="10" stroke-linecap="round" stroke-linejoin="round"/>
</svg>
