<svg width="63" height="15" viewBox="0 0 63 15" fill="none" xmlns="http://www.w3.org/2000/svg">
<path d="M20.2 6.9C20.752 6.9 21.244 7.004 21.676 7.212C22.116 7.42 22.46 7.72 22.708 8.112C22.956 8.496 23.08 8.94 23.08 9.444C23.08 9.972 22.948 10.436 22.684 10.836C22.428 11.236 22.072 11.548 21.616 11.772C21.168 11.988 20.664 12.096 20.104 12.096C18.976 12.096 18.104 11.732 17.488 11.004C16.88 10.276 16.576 9.244 16.576 7.908C16.576 6.972 16.74 6.176 17.068 5.52C17.404 4.856 17.868 4.356 18.46 4.02C19.06 3.676 19.756 3.504 20.548 3.504C20.956 3.504 21.34 3.548 21.7 3.636C22.06 3.716 22.372 3.836 22.636 3.996L22.18 4.932C21.78 4.668 21.244 4.536 20.572 4.536C19.7 4.536 19.016 4.808 18.52 5.352C18.024 5.888 17.776 6.672 17.776 7.704C17.776 7.832 17.78 7.932 17.788 8.004C18.028 7.644 18.356 7.372 18.772 7.188C19.196 6.996 19.672 6.9 20.2 6.9ZM20.056 11.124C20.608 11.124 21.056 10.976 21.4 10.68C21.744 10.384 21.916 9.988 21.916 9.492C21.916 8.996 21.74 8.604 21.388 8.316C21.044 8.02 20.58 7.872 19.996 7.872C19.62 7.872 19.284 7.944 18.988 8.088C18.7 8.232 18.472 8.428 18.304 8.676C18.144 8.924 18.064 9.2 18.064 9.504C18.064 9.8 18.14 10.072 18.292 10.32C18.452 10.56 18.68 10.756 18.976 10.908C19.28 11.052 19.64 11.124 20.056 11.124ZM32.8209 5.64V12H31.6689V9.432C30.9809 9.752 30.2969 9.912 29.6169 9.912C28.8249 9.912 28.2129 9.728 27.7809 9.36C27.3489 8.992 27.1329 8.44 27.1329 7.704V5.64H28.2849V7.632C28.2849 8.072 28.4209 8.404 28.6929 8.628C28.9729 8.852 29.3609 8.964 29.8569 8.964C30.4169 8.964 31.0209 8.824 31.6689 8.544V5.64H32.8209ZM37.3254 5.58C38.2054 5.58 38.8774 5.796 39.3414 6.228C39.8134 6.66 40.0494 7.304 40.0494 8.16V12H38.9574V11.16C38.7654 11.456 38.4894 11.684 38.1294 11.844C37.7774 11.996 37.3574 12.072 36.8694 12.072C36.1574 12.072 35.5854 11.9 35.1534 11.556C34.7294 11.212 34.5174 10.76 34.5174 10.2C34.5174 9.64 34.7214 9.192 35.1294 8.856C35.5374 8.512 36.1854 8.34 37.0734 8.34H38.8974V8.112C38.8974 7.616 38.7534 7.236 38.4654 6.972C38.1774 6.708 37.7534 6.576 37.1934 6.576C36.8174 6.576 36.4494 6.64 36.0894 6.768C35.7294 6.888 35.4254 7.052 35.1774 7.26L34.6974 6.396C35.0254 6.132 35.4174 5.932 35.8734 5.796C36.3294 5.652 36.8134 5.58 37.3254 5.58ZM37.0614 11.184C37.5014 11.184 37.8814 11.088 38.2014 10.896C38.5214 10.696 38.7534 10.416 38.8974 10.056V9.168H37.1214C36.1454 9.168 35.6574 9.496 35.6574 10.152C35.6574 10.472 35.7814 10.724 36.0294 10.908C36.2774 11.092 36.6214 11.184 37.0614 11.184ZM44.8958 12.072C44.2478 12.072 43.6678 11.932 43.1558 11.652C42.6518 11.372 42.2558 10.988 41.9678 10.5C41.6798 10.004 41.5358 9.444 41.5358 8.82C41.5358 8.196 41.6798 7.64 41.9678 7.152C42.2558 6.656 42.6518 6.272 43.1558 6C43.6678 5.72 44.2478 5.58 44.8958 5.58C45.4718 5.58 45.9838 5.696 46.4318 5.928C46.8878 6.16 47.2398 6.496 47.4878 6.936L46.6118 7.5C46.4118 7.196 46.1638 6.968 45.8678 6.816C45.5718 6.664 45.2438 6.588 44.8838 6.588C44.4678 6.588 44.0918 6.68 43.7558 6.864C43.4278 7.048 43.1678 7.312 42.9758 7.656C42.7918 7.992 42.6998 8.38 42.6998 8.82C42.6998 9.268 42.7918 9.664 42.9758 10.008C43.1678 10.344 43.4278 10.604 43.7558 10.788C44.0918 10.972 44.4678 11.064 44.8838 11.064C45.2438 11.064 45.5718 10.988 45.8678 10.836C46.1638 10.684 46.4118 10.456 46.6118 10.152L47.4878 10.704C47.2398 11.144 46.8878 11.484 46.4318 11.724C45.9838 11.956 45.4718 12.072 44.8958 12.072ZM51.6095 12.072C50.9775 12.072 50.4095 11.932 49.9055 11.652C49.4015 11.372 49.0055 10.988 48.7175 10.5C48.4375 10.004 48.2975 9.444 48.2975 8.82C48.2975 8.196 48.4375 7.64 48.7175 7.152C49.0055 6.656 49.4015 6.272 49.9055 6C50.4095 5.72 50.9775 5.58 51.6095 5.58C52.2415 5.58 52.8055 5.72 53.3015 6C53.8055 6.272 54.1975 6.656 54.4775 7.152C54.7655 7.64 54.9095 8.196 54.9095 8.82C54.9095 9.444 54.7655 10.004 54.4775 10.5C54.1975 10.988 53.8055 11.372 53.3015 11.652C52.8055 11.932 52.2415 12.072 51.6095 12.072ZM51.6095 11.064C52.0175 11.064 52.3815 10.972 52.7015 10.788C53.0295 10.596 53.2855 10.332 53.4695 9.996C53.6535 9.652 53.7455 9.26 53.7455 8.82C53.7455 8.38 53.6535 7.992 53.4695 7.656C53.2855 7.312 53.0295 7.048 52.7015 6.864C52.3815 6.68 52.0175 6.588 51.6095 6.588C51.2015 6.588 50.8335 6.68 50.5055 6.864C50.1855 7.048 49.9295 7.312 49.7375 7.656C49.5535 7.992 49.4615 8.38 49.4615 8.82C49.4615 9.26 49.5535 9.652 49.7375 9.996C49.9295 10.332 50.1855 10.596 50.5055 10.788C50.8335 10.972 51.2015 11.064 51.6095 11.064ZM60.905 8.7C61.729 8.908 62.141 9.424 62.141 10.248C62.141 10.808 61.929 11.24 61.505 11.544C61.089 11.848 60.465 12 59.633 12H56.573V5.64H59.525C60.277 5.64 60.865 5.784 61.289 6.072C61.713 6.352 61.925 6.752 61.925 7.272C61.925 7.608 61.833 7.9 61.649 8.148C61.473 8.388 61.225 8.572 60.905 8.7ZM57.701 8.376H59.429C59.869 8.376 60.201 8.296 60.425 8.136C60.657 7.976 60.773 7.744 60.773 7.44C60.773 6.832 60.325 6.528 59.429 6.528H57.701V8.376ZM59.549 11.112C60.029 11.112 60.389 11.036 60.629 10.884C60.869 10.732 60.989 10.496 60.989 10.176C60.989 9.848 60.877 9.604 60.653 9.444C60.437 9.284 60.093 9.204 59.621 9.204H57.701V11.112H59.549Z" fill="white"/>
<g clip-path="url(#clip0_11_111)">
<path d="M6 13.625C4.88748 13.625 3.79995 13.2951 2.87492 12.677C1.94989 12.0589 1.22892 11.1804 0.80318 10.1526C0.377437 9.12476 0.266043 7.99376 0.483085 6.90262C0.700127 5.81148 1.23586 4.8092 2.02253 4.02253C2.8092 3.23586 3.81148 2.70013 4.90262 2.48309C5.99376 2.26604 7.12476 2.37744 8.1526 2.80318C9.18043 3.22892 10.0589 3.94989 10.677 4.87492C11.2951 5.79995 11.625 6.88748 11.625 8C11.625 9.49184 11.0324 10.9226 9.97748 11.9775C8.92259 13.0324 7.49184 13.625 6 13.625ZM6 3.125C5.03582 3.125 4.09329 3.41092 3.2916 3.94659C2.48991 4.48226 1.86507 5.24363 1.49609 6.13442C1.12711 7.02521 1.03057 8.00541 1.21867 8.95107C1.40678 9.89673 1.87108 10.7654 2.55286 11.4471C3.23464 12.1289 4.10328 12.5932 5.04894 12.7813C5.99459 12.9694 6.97479 12.8729 7.86558 12.5039C8.75637 12.1349 9.51775 11.5101 10.0534 10.7084C10.5891 9.90672 10.875 8.96419 10.875 8C10.875 6.70707 10.3614 5.4671 9.44715 4.55286C8.53291 3.63862 7.29293 3.125 6 3.125Z" fill="white"/>
<path d="M7.59001 10.1225L5.73376 8.26625C5.699 8.23121 5.6715 8.18965 5.65284 8.14397C5.63418 8.09828 5.62472 8.04935 5.62501 8V5H6.37501V7.84625L8.12251 9.59L7.59001 10.1225Z" fill="white"/>
</g>
<defs>
<clipPath id="clip0_11_111">
<rect width="12" height="12" fill="white" transform="translate(0 2)"/>
</clipPath>
</defs>
</svg>
