<svg width="50" height="15" viewBox="0 0 50 15" fill="none" xmlns="http://www.w3.org/2000/svg">
<path d="M22.2 6.9C22.752 6.9 23.244 7.004 23.676 7.212C24.116 7.42 24.46 7.72 24.708 8.112C24.956 8.496 25.08 8.94 25.08 9.444C25.08 9.972 24.948 10.436 24.684 10.836C24.428 11.236 24.072 11.548 23.616 11.772C23.168 11.988 22.664 12.096 22.104 12.096C20.976 12.096 20.104 11.732 19.488 11.004C18.88 10.276 18.576 9.244 18.576 7.908C18.576 6.972 18.74 6.176 19.068 5.52C19.404 4.856 19.868 4.356 20.46 4.02C21.06 3.676 21.756 3.504 22.548 3.504C22.956 3.504 23.34 3.548 23.7 3.636C24.06 3.716 24.372 3.836 24.636 3.996L24.18 4.932C23.78 4.668 23.244 4.536 22.572 4.536C21.7 4.536 21.016 4.808 20.52 5.352C20.024 5.888 19.776 6.672 19.776 7.704C19.776 7.832 19.78 7.932 19.788 8.004C20.028 7.644 20.356 7.372 20.772 7.188C21.196 6.996 21.672 6.9 22.2 6.9ZM22.056 11.124C22.608 11.124 23.056 10.976 23.4 10.68C23.744 10.384 23.916 9.988 23.916 9.492C23.916 8.996 23.74 8.604 23.388 8.316C23.044 8.02 22.58 7.872 21.996 7.872C21.62 7.872 21.284 7.944 20.988 8.088C20.7 8.232 20.472 8.428 20.304 8.676C20.144 8.924 20.064 9.2 20.064 9.504C20.064 9.8 20.14 10.072 20.292 10.32C20.452 10.56 20.68 10.756 20.976 10.908C21.28 11.052 21.64 11.124 22.056 11.124ZM28.5863 3.6V12H27.3983V4.644H25.5023V3.6H28.5863ZM35.5597 7.596C36.0397 7.78 36.4077 8.044 36.6637 8.388C36.9197 8.732 37.0477 9.144 37.0477 9.624C37.0477 10.128 36.9117 10.568 36.6397 10.944C36.3677 11.312 35.9797 11.596 35.4757 11.796C34.9717 11.996 34.3797 12.096 33.6997 12.096C33.0277 12.096 32.4397 11.996 31.9357 11.796C31.4397 11.596 31.0557 11.312 30.7837 10.944C30.5117 10.568 30.3757 10.128 30.3757 9.624C30.3757 9.144 30.4997 8.732 30.7477 8.388C31.0037 8.044 31.3717 7.78 31.8517 7.596C31.4677 7.412 31.1757 7.168 30.9757 6.864C30.7757 6.56 30.6757 6.2 30.6757 5.784C30.6757 5.32 30.7997 4.916 31.0477 4.572C31.3037 4.228 31.6597 3.964 32.1157 3.78C32.5717 3.596 33.0997 3.504 33.6997 3.504C34.3077 3.504 34.8397 3.596 35.2957 3.78C35.7597 3.964 36.1157 4.228 36.3637 4.572C36.6197 4.916 36.7477 5.32 36.7477 5.784C36.7477 6.192 36.6437 6.552 36.4357 6.864C36.2357 7.168 35.9437 7.412 35.5597 7.596ZM33.6997 4.476C33.1317 4.476 32.6837 4.6 32.3557 4.848C32.0277 5.088 31.8637 5.416 31.8637 5.832C31.8637 6.248 32.0237 6.576 32.3437 6.816C32.6717 7.056 33.1237 7.176 33.6997 7.176C34.2837 7.176 34.7397 7.056 35.0677 6.816C35.4037 6.576 35.5717 6.248 35.5717 5.832C35.5717 5.416 35.3997 5.088 35.0557 4.848C34.7197 4.6 34.2677 4.476 33.6997 4.476ZM33.6997 11.124C34.3637 11.124 34.8877 10.988 35.2717 10.716C35.6557 10.436 35.8477 10.06 35.8477 9.588C35.8477 9.124 35.6557 8.76 35.2717 8.496C34.8877 8.224 34.3637 8.088 33.6997 8.088C33.0357 8.088 32.5157 8.224 32.1397 8.496C31.7637 8.76 31.5757 9.124 31.5757 9.588C31.5757 10.06 31.7637 10.436 32.1397 10.716C32.5157 10.988 33.0357 11.124 33.6997 11.124ZM43.589 9.204V9.912H46.253V10.596H43.589V12H42.377V10.596H41.153V9.912H42.377V3.6H45.677C46.773 3.6 47.629 3.844 48.245 4.332C48.861 4.812 49.169 5.5 49.169 6.396C49.169 7.3 48.861 7.996 48.245 8.484C47.629 8.964 46.773 9.204 45.677 9.204H43.589ZM47.957 6.408C47.957 5.84 47.761 5.404 47.369 5.1C46.977 4.796 46.413 4.644 45.677 4.644H43.589V8.208H45.677C46.405 8.208 46.965 8.052 47.357 7.74C47.757 7.42 47.957 6.976 47.957 6.408Z" fill="white"/>
<path d="M9.7 4.41997C11.401 4.41997 12.78 3.92748 12.78 3.31997C12.78 2.71246 11.401 2.21997 9.7 2.21997C7.99896 2.21997 6.62 2.71246 6.62 3.31997C6.62 3.92748 7.99896 4.41997 9.7 4.41997Z" stroke="white" stroke-width="0.6" stroke-miterlimit="10" stroke-linecap="round" stroke-linejoin="round"/>
<path d="M6.62 3.54004C6.62 3.74068 6.62 4.6594 6.62 4.86004C6.62 5.46746 7.99852 5.96004 9.7 5.96004C11.4015 5.96004 12.78 5.46746 12.78 4.86004C12.78 4.6594 12.78 3.74068 12.78 3.54004" stroke="white" stroke-width="0.6" stroke-miterlimit="10" stroke-linecap="round" stroke-linejoin="round"/>
<path d="M8.28101 7.37654C8.70561 7.4553 9.18829 7.49996 9.70001 7.49996C11.4015 7.49996 12.78 7.00738 12.78 6.39996C12.78 6.19932 12.78 5.2806 12.78 5.07996" stroke="white" stroke-width="0.6" stroke-miterlimit="10" stroke-linecap="round" stroke-linejoin="round"/>
<path d="M6.62 5.07996C6.62 5.2806 6.62 6.01936 6.62 6.01936" stroke="white" stroke-width="0.6" stroke-miterlimit="10" stroke-linecap="round" stroke-linejoin="round"/>
<path d="M8.3855 8.93505C8.78414 9.00237 9.22964 9.03999 9.7 9.03999C11.4015 9.03999 12.78 8.54763 12.78 7.93999C12.78 7.73935 12.78 6.82064 12.78 6.62" stroke="white" stroke-width="0.6" stroke-miterlimit="10" stroke-linecap="round" stroke-linejoin="round"/>
<path d="M8.36853 10.4722C8.77135 10.5413 9.22301 10.58 9.69997 10.58C11.4015 10.58 12.78 10.0877 12.78 9.48003C12.78 9.27939 12.78 8.36067 12.78 8.16003" stroke="white" stroke-width="0.6" stroke-miterlimit="10" stroke-linecap="round" stroke-linejoin="round"/>
<path d="M5.29997 8.15996C7.00101 8.15996 8.37997 7.66747 8.37997 7.05996C8.37997 6.45245 7.00101 5.95996 5.29997 5.95996C3.59893 5.95996 2.21997 6.45245 2.21997 7.05996C2.21997 7.66747 3.59893 8.15996 5.29997 8.15996Z" stroke="white" stroke-width="0.6" stroke-miterlimit="10" stroke-linecap="round" stroke-linejoin="round"/>
<path d="M2.21997 7.28003C2.21997 7.48067 2.21997 8.39939 2.21997 8.60003C2.21997 9.20767 3.59849 9.70003 5.29997 9.70003C7.00145 9.70003 8.37997 9.20767 8.37997 8.60003C8.37997 8.39939 8.37997 7.48067 8.37997 7.28003" stroke="white" stroke-width="0.6" stroke-miterlimit="10" stroke-linecap="round" stroke-linejoin="round"/>
<path d="M2.21997 8.81995C2.21997 9.02059 2.21997 9.93931 2.21997 10.1399C2.21997 10.7476 3.59849 11.2399 5.29997 11.2399C7.00145 11.2399 8.37997 10.7476 8.37997 10.1399C8.37997 9.93931 8.37997 9.02059 8.37997 8.81995" stroke="white" stroke-width="0.6" stroke-miterlimit="10" stroke-linecap="round" stroke-linejoin="round"/>
<path d="M2.21997 10.36C2.21997 10.5606 2.21997 11.4793 2.21997 11.68C2.21997 12.2876 3.59849 12.78 5.29997 12.78C7.00145 12.78 8.37997 12.2876 8.37997 11.68C8.37997 11.4793 8.37997 10.5606 8.37997 10.36" stroke="white" stroke-width="0.6" stroke-miterlimit="10" stroke-linecap="round" stroke-linejoin="round"/>
</svg>
