<svg width="62" height="15" viewBox="0 0 62 15" fill="none" xmlns="http://www.w3.org/2000/svg">
<path d="M19.18 3.6V12H17.992V4.644H16.096V3.6H19.18ZM21.8214 10.428C22.0454 10.428 22.2294 10.508 22.3734 10.668C22.5254 10.82 22.6014 11.012 22.6014 11.244C22.6014 11.364 22.5854 11.48 22.5534 11.592C22.5294 11.704 22.4774 11.876 22.3974 12.108L21.8334 13.776H21.0774L21.5214 11.988C21.3694 11.932 21.2454 11.84 21.1494 11.712C21.0614 11.576 21.0174 11.42 21.0174 11.244C21.0174 11.004 21.0934 10.808 21.2454 10.656C21.3974 10.504 21.5894 10.428 21.8214 10.428ZM26.1362 6.948C27.3362 6.948 28.2162 7.176 28.7762 7.632C29.3442 8.08 29.6282 8.696 29.6282 9.48C29.6282 9.976 29.5082 10.424 29.2682 10.824C29.0362 11.216 28.6802 11.528 28.2002 11.76C27.7282 11.984 27.1442 12.096 26.4482 12.096C25.8562 12.096 25.2842 12.008 24.7322 11.832C24.1802 11.648 23.7242 11.396 23.3642 11.076L23.9162 10.128C24.2042 10.4 24.5722 10.62 25.0202 10.788C25.4682 10.948 25.9402 11.028 26.4362 11.028C27.0682 11.028 27.5562 10.896 27.9002 10.632C28.2522 10.36 28.4282 9.992 28.4282 9.528C28.4282 9.024 28.2362 8.644 27.8522 8.388C27.4682 8.124 26.8122 7.992 25.8842 7.992H23.9762L24.4202 3.6H29.1602V4.644H25.4282L25.2002 6.948H26.1362ZM39.4654 5.64V12H38.3134V9.432C37.6254 9.752 36.9414 9.912 36.2614 9.912C35.4694 9.912 34.8574 9.728 34.4254 9.36C33.9934 8.992 33.7774 8.44 33.7774 7.704V5.64H34.9294V7.632C34.9294 8.072 35.0654 8.404 35.3374 8.628C35.6174 8.852 36.0054 8.964 36.5014 8.964C37.0614 8.964 37.6654 8.824 38.3134 8.544V5.64H39.4654ZM43.9699 5.58C44.8499 5.58 45.5219 5.796 45.9859 6.228C46.4579 6.66 46.6939 7.304 46.6939 8.16V12H45.6019V11.16C45.4099 11.456 45.1339 11.684 44.7739 11.844C44.4219 11.996 44.0019 12.072 43.5139 12.072C42.8019 12.072 42.2299 11.9 41.7979 11.556C41.3739 11.212 41.1619 10.76 41.1619 10.2C41.1619 9.64 41.3659 9.192 41.7739 8.856C42.1819 8.512 42.8299 8.34 43.7179 8.34H45.5419V8.112C45.5419 7.616 45.3979 7.236 45.1099 6.972C44.8219 6.708 44.3979 6.576 43.8379 6.576C43.4619 6.576 43.0939 6.64 42.7339 6.768C42.3739 6.888 42.0699 7.052 41.8219 7.26L41.3419 6.396C41.6699 6.132 42.0619 5.932 42.5179 5.796C42.9739 5.652 43.4579 5.58 43.9699 5.58ZM43.7059 11.184C44.1459 11.184 44.5259 11.088 44.8459 10.896C45.1659 10.696 45.3979 10.416 45.5419 10.056V9.168H43.7659C42.7899 9.168 42.3019 9.496 42.3019 10.152C42.3019 10.472 42.4259 10.724 42.6739 10.908C42.9219 11.092 43.2659 11.184 43.7059 11.184ZM51.5403 12.072C50.8923 12.072 50.3123 11.932 49.8003 11.652C49.2963 11.372 48.9003 10.988 48.6123 10.5C48.3243 10.004 48.1803 9.444 48.1803 8.82C48.1803 8.196 48.3243 7.64 48.6123 7.152C48.9003 6.656 49.2963 6.272 49.8003 6C50.3123 5.72 50.8923 5.58 51.5403 5.58C52.1163 5.58 52.6283 5.696 53.0763 5.928C53.5323 6.16 53.8843 6.496 54.1323 6.936L53.2563 7.5C53.0563 7.196 52.8083 6.968 52.5123 6.816C52.2163 6.664 51.8883 6.588 51.5283 6.588C51.1123 6.588 50.7363 6.68 50.4003 6.864C50.0723 7.048 49.8123 7.312 49.6203 7.656C49.4363 7.992 49.3443 8.38 49.3443 8.82C49.3443 9.268 49.4363 9.664 49.6203 10.008C49.8123 10.344 50.0723 10.604 50.4003 10.788C50.7363 10.972 51.1123 11.064 51.5283 11.064C51.8883 11.064 52.2163 10.988 52.5123 10.836C52.8083 10.684 53.0563 10.456 53.2563 10.152L54.1323 10.704C53.8843 11.144 53.5323 11.484 53.0763 11.724C52.6283 11.956 52.1163 12.072 51.5403 12.072ZM57.8918 5.58C58.7718 5.58 59.4438 5.796 59.9078 6.228C60.3798 6.66 60.6158 7.304 60.6158 8.16V12H59.5238V11.16C59.3318 11.456 59.0558 11.684 58.6958 11.844C58.3438 11.996 57.9238 12.072 57.4358 12.072C56.7238 12.072 56.1518 11.9 55.7198 11.556C55.2958 11.212 55.0838 10.76 55.0838 10.2C55.0838 9.64 55.2878 9.192 55.6958 8.856C56.1038 8.512 56.7518 8.34 57.6398 8.34H59.4638V8.112C59.4638 7.616 59.3198 7.236 59.0318 6.972C58.7438 6.708 58.3198 6.576 57.7598 6.576C57.3838 6.576 57.0158 6.64 56.6558 6.768C56.2958 6.888 55.9918 7.052 55.7438 7.26L55.2638 6.396C55.5918 6.132 55.9838 5.932 56.4398 5.796C56.8958 5.652 57.3798 5.58 57.8918 5.58ZM57.6278 11.184C58.0678 11.184 58.4478 11.088 58.7678 10.896C59.0878 10.696 59.3198 10.416 59.4638 10.056V9.168H57.6878C56.7118 9.168 56.2238 9.496 56.2238 10.152C56.2238 10.472 56.3478 10.724 56.5958 10.908C56.8438 11.092 57.1878 11.184 57.6278 11.184Z" fill="white"/>
<g clip-path="url(#clip0_19_303)">
<path d="M6 13.625C4.88748 13.625 3.79995 13.2951 2.87492 12.677C1.94989 12.0589 1.22892 11.1804 0.80318 10.1526C0.377437 9.12476 0.266043 7.99376 0.483085 6.90262C0.700127 5.81148 1.23586 4.8092 2.02253 4.02253C2.8092 3.23586 3.81148 2.70013 4.90262 2.48309C5.99376 2.26604 7.12476 2.37744 8.1526 2.80318C9.18043 3.22892 10.0589 3.94989 10.677 4.87492C11.2951 5.79995 11.625 6.88748 11.625 8C11.625 9.49184 11.0324 10.9226 9.97748 11.9775C8.92259 13.0324 7.49184 13.625 6 13.625ZM6 3.125C5.03582 3.125 4.09329 3.41092 3.2916 3.94659C2.48991 4.48226 1.86507 5.24363 1.49609 6.13442C1.12711 7.02521 1.03057 8.00541 1.21867 8.95107C1.40678 9.89673 1.87108 10.7654 2.55286 11.4471C3.23464 12.1289 4.10328 12.5932 5.04894 12.7813C5.99459 12.9694 6.97479 12.8729 7.86558 12.5039C8.75637 12.1349 9.51775 11.5101 10.0534 10.7084C10.5891 9.90672 10.875 8.96419 10.875 8C10.875 6.70707 10.3614 5.4671 9.44715 4.55286C8.53291 3.63862 7.29293 3.125 6 3.125Z" fill="white"/>
<path d="M7.59001 10.1225L5.73376 8.26625C5.699 8.23121 5.6715 8.18965 5.65284 8.14397C5.63418 8.09828 5.62472 8.04935 5.62501 8V5H6.37501V7.84625L8.12251 9.59L7.59001 10.1225Z" fill="white"/>
</g>
<defs>
<clipPath id="clip0_19_303">
<rect width="12" height="12" fill="white" transform="translate(0 2)"/>
</clipPath>
</defs>
</svg>
