<svg width="51" height="68" viewBox="0 0 51 68" fill="none" xmlns="http://www.w3.org/2000/svg">
<g clip-path="url(#clip0_2_2945)">
<path d="M38.8392 22.5096L38.8614 30.7826C38.8614 30.7826 42.5964 29.4149 47.4874 24.0117C49.1103 22.2181 49.8662 19.7967 49.7106 18.0928C49.4883 15.806 48.9769 14.528 46.2646 13.833C44.7973 17.7565 38.8392 22.5096 38.8392 22.5096Z" fill="#DAECEA"/>
<path d="M6.38059 32.6211C5.58024 34.4595 5.42462 36.141 6.26943 37.6656C6.89192 38.7866 7.95905 39.8852 9.82653 40.2663C12.072 40.7372 14.0284 40.6026 14.0284 40.6026V33.361C14.0284 33.361 11.5829 33.3161 9.67091 33.3161C8.42592 33.3385 7.44772 32.8005 6.38059 32.6211Z" fill="#DAECEA"/>
<path d="M15.8514 22.1735V51.7456L25.211 51.7904L25.2332 17.1963C21.854 18.7657 19.5419 19.8419 15.8514 22.1735Z" fill="#509F9A"/>
<path d="M25.1665 4.79789L25.1888 0H15.8958V9.03528C18.5414 7.62282 20.6757 6.36729 25.1665 4.79789Z" fill="#509F9A"/>
<path d="M0.93374 58.3813V65.623H0V58.3813H0.93374Z" fill="#509F9A"/>
<path d="M3.9128 59.1885H1.73407V58.4038H7.0475V59.1885H4.84654V65.6231H3.9128V59.1885Z" fill="#509F9A"/>
<path d="M9.42634 62.3726V63.0676H6.80298V62.3726H9.42634Z" fill="#509F9A"/>
<path d="M11.6718 63.3366L10.9159 65.6011H9.9599L12.4054 58.3594H13.517L15.9625 65.6011H14.9621L14.2284 63.3366H11.6718ZM14.0283 62.6192L13.3169 60.5341C13.1613 60.0633 13.0501 59.6373 12.939 59.2113H12.9167C12.8056 59.6373 12.6944 60.0857 12.561 60.5117L11.8496 62.5968H14.0283V62.6192Z" fill="#509F9A"/>
<path d="M20.5423 65.4213C20.2978 65.5559 19.7642 65.7128 19.0528 65.7128C17.4965 65.7128 16.4961 64.6591 16.4961 63.0672C16.4961 61.4754 17.5855 60.3096 19.2529 60.3096C19.8086 60.3096 20.2978 60.4441 20.5423 60.5786L20.32 61.3185C20.0977 61.184 19.742 61.0719 19.2306 61.0719C18.0523 61.0719 17.4076 61.9462 17.4076 63.0448C17.4076 64.2555 18.1635 64.9954 19.1862 64.9954C19.7197 64.9954 20.0754 64.8608 20.3422 64.7487L20.5423 65.4213Z" fill="#509F9A"/>
<path d="M24.4996 65.623L24.4329 64.9729H24.4107C24.1216 65.3764 23.5658 65.7351 22.8322 65.7351C21.7873 65.7351 21.2537 64.9953 21.2537 64.233C21.2537 62.9775 22.3653 62.2825 24.344 62.3049V62.1928C24.344 61.7668 24.2328 60.9821 23.1657 60.9821C22.6766 60.9821 22.1875 61.139 21.8318 61.3632L21.6094 60.7355C22.0318 60.4664 22.6543 60.2646 23.2991 60.2646C24.8775 60.2646 25.2555 61.3408 25.2555 62.3946V64.3451C25.2555 64.7935 25.2777 65.2419 25.3444 65.5782H24.4996V65.623ZM24.344 62.9775C23.3213 62.9551 22.1652 63.1344 22.1652 64.1433C22.1652 64.7487 22.5654 65.0401 23.0545 65.0401C23.7215 65.0401 24.1439 64.6141 24.2995 64.1657C24.3217 64.0761 24.344 63.964 24.344 63.8743V62.9775Z" fill="#509F9A"/>
<path d="M31.2136 58.0004V64.2781C31.2136 64.7489 31.2136 65.2645 31.2581 65.6233H30.4133L30.3688 64.7265H30.3466C30.0575 65.3094 29.4351 65.7354 28.5902 65.7354C27.3453 65.7354 26.3893 64.6816 26.3893 63.0898C26.3893 61.3635 27.4342 60.2873 28.7014 60.2873C29.4795 60.2873 30.0131 60.6684 30.2576 61.072H30.2799V57.978H31.2136V58.0004ZM30.2799 62.5293C30.2799 62.4172 30.2799 62.2603 30.2354 62.1257C30.102 61.5204 29.5907 61.0272 28.8793 61.0272C27.9011 61.0272 27.3453 61.8791 27.3453 63.045C27.3453 64.0987 27.8566 64.9731 28.857 64.9731C29.4795 64.9731 30.0575 64.5471 30.2354 63.8521C30.2576 63.7176 30.2799 63.583 30.2799 63.4485V62.5293Z" fill="#509F9A"/>
<path d="M33.2812 63.2017C33.3034 64.4797 34.1038 64.9953 35.0597 64.9953C35.7267 64.9953 36.1269 64.8832 36.4826 64.7263L36.6382 65.3989C36.3047 65.5558 35.7489 65.7128 34.9263 65.7128C33.3479 65.7128 32.3919 64.659 32.3919 63.0896C32.3919 61.5202 33.3034 60.2871 34.8152 60.2871C36.5048 60.2871 36.9494 61.7893 36.9494 62.7309C36.9494 62.9327 36.9272 63.0672 36.9272 63.1793H33.2812V63.2017ZM36.0379 62.5067C36.0602 61.9014 35.7934 60.9821 34.7485 60.9821C33.7925 60.9821 33.3923 61.8565 33.3034 62.5067H36.0379Z" fill="#509F9A"/>
<path d="M38.1055 61.8341C38.1055 61.296 38.1055 60.8476 38.061 60.4216H38.8836L38.9281 61.2512H38.9503C39.2393 60.7579 39.7062 60.2871 40.5732 60.2871C41.2847 60.2871 41.8182 60.7131 42.0405 61.3184H42.0628C42.2184 61.027 42.4185 60.8028 42.6408 60.6458C42.9521 60.4216 43.2855 60.2871 43.7746 60.2871C44.4638 60.2871 45.4643 60.7355 45.4643 62.5515V65.6007H44.5528V62.6636C44.5528 61.6547 44.197 61.0718 43.4412 61.0718C42.9076 61.0718 42.4852 61.4754 42.3296 61.9238C42.2851 62.0583 42.2629 62.2152 42.2629 62.3946V65.6007H41.3514V62.4843C41.3514 61.6547 40.9956 61.0494 40.2842 61.0494C39.7062 61.0494 39.2838 61.5202 39.1282 61.991C39.0837 62.1256 39.0615 62.2825 39.0615 62.4619V65.6007H38.15V61.8341H38.1055Z" fill="#509F9A"/>
<path d="M47.1761 60.4218L48.3099 63.4934C48.4211 63.8297 48.5545 64.2557 48.6434 64.5471H48.6656C48.7546 64.2332 48.8657 63.8297 48.9991 63.471L50.0218 60.4218H51.0222L49.6216 64.1211C48.9547 65.8923 48.4878 66.8115 47.8653 67.3721C47.3984 67.7756 46.9538 67.9326 46.7092 67.9774L46.4647 67.1927C46.7092 67.1254 46.9983 66.9685 47.2873 66.7219C47.5318 66.5201 47.8653 66.1614 48.0654 65.6681C48.1098 65.5784 48.1321 65.4888 48.1321 65.4439C48.1321 65.3991 48.1098 65.3094 48.0654 65.1973L46.1534 60.3994H47.1761V60.4218Z" fill="#509F9A"/>
<path d="M3.91284 36.5669C3.97954 36.7687 4.04623 36.8584 4.04623 36.8584L3.91284 36.5669Z" fill="#36A9E1"/>
<path d="M46.9093 6.7259C46.9093 6.7259 45.7977 3.76645 36.2602 4.61841C26.5004 5.49279 18.2302 9.68534 13.3614 12.6448C8.51483 15.6042 3.57934 19.6623 0.711426 26.0744C5.36442e-06 27.6886 1.1116 30.2221 1.1116 30.2221L3.91282 36.567C3.40149 35.289 2.17873 29.8185 14.1617 21.0299C15.9403 19.7295 18.3191 18.0704 25.5 14.8644C26.167 14.5729 26.8339 14.2815 27.5009 14.0348L27.4786 51.7678H36.7938L36.7716 11.591C39.306 11.2099 41.1957 11.1875 41.9961 11.1875C47.7541 11.1875 49.7995 13.5416 50.4442 14.7074L46.9093 6.7259Z" fill="#509F9A"/>
</g>
<defs>
<clipPath id="clip0_2_2945">
<rect width="51" height="68" fill="white"/>
</clipPath>
</defs>
</svg>
